<svg id="visual" viewBox="0 0 1500 250" width="1500" height="250" xmlns="http://www.w3.org/2000/svg" xmlns:xlink="http://www.w3.org/1999/xlink" version="1.1"><rect x="0" y="0" width="1500" height="250" fill="#ffffff"></rect><path d="M0 84L11.3 97.5C22.7 111 45.3 138 68 140C90.7 142 113.3 119 136.2 101.8C159 84.7 182 73.3 204.8 70C227.7 66.7 250.3 71.3 273 71C295.7 70.7 318.3 65.3 341 83C363.7 100.7 386.3 141.3 409 155.2C431.7 169 454.3 156 477 145.8C499.7 135.7 522.3 128.3 545.2 134.7C568 141 591 161 613.8 166C636.7 171 659.3 161 682 145.8C704.7 130.7 727.3 110.3 750 96.3C772.7 82.3 795.3 74.7 818 91.2C840.7 107.7 863.3 148.3 886.2 153.8C909 159.3 932 129.7 954.8 107.2C977.7 84.7 1000.3 69.3 1023 85.5C1045.7 101.7 1068.3 149.3 1091 152.8C1113.7 156.3 1136.3 115.7 1159 97.5C1181.7 79.3 1204.3 83.7 1227 86.7C1249.7 89.7 1272.3 91.3 1295.2 105C1318 118.7 1341 144.3 1363.8 147.7C1386.7 151 1409.3 132 1432 127C1454.7 122 1477.3 131 1488.7 135.5L1500 140L1500 0L1488.7 0C1477.3 0 1454.7 0 1432 0C1409.3 0 1386.7 0 1363.8 0C1341 0 1318 0 1295.2 0C1272.3 0 1249.7 0 1227 0C1204.3 0 1181.7 0 1159 0C1136.3 0 1113.7 0 1091 0C1068.3 0 1045.7 0 1023 0C1000.3 0 977.7 0 954.8 0C932 0 909 0 886.2 0C863.3 0 840.7 0 818 0C795.3 0 772.7 0 750 0C727.3 0 704.7 0 682 0C659.3 0 636.7 0 613.8 0C591 0 568 0 545.2 0C522.3 0 499.7 0 477 0C454.3 0 431.7 0 409 0C386.3 0 363.7 0 341 0C318.3 0 295.7 0 273 0C250.3 0 227.7 0 204.8 0C182 0 159 0 136.2 0C113.3 0 90.7 0 68 0C45.3 0 22.7 0 11.3 0L0 0Z" fill="#ffcee4" stroke-linecap="round" stroke-linejoin="miter"></path></svg>